# xmcd
#
# Track frame offsets:
#	150
#	15029
#	31877
#	48133
#	61491
#	75380
#	96524
#	113762
#	130670
#	147846
#	170089
#	187598
#
# Disc length: 2781 seconds
#
# Revision: 2
# Processed by: cddbd v1.5.2PL0 Copyright (c) Steve Scherf et al.
# Submitted via: audiograbber 1.83.01
#
DISCID=890adb0c
DTITLE=Graham, Jon Dee - Full
DYEAR=2006
DGENRE=Rock
TTITLE0=Jubilee
TTITLE1=Swept away
TTITLE2=Something wonderful
TTITLE3=Amsterdam
TTITLE4=O dearest one
TTITLE5=Holes
TTITLE6=Bonaparte
TTITLE7=Rosewood
TTITLE8=WCD
TTITLE9=Tie a knot
TTITLE10=Remain
TTITLE11=Beloved garden
EXTD=
EXTT0=
EXTT1=
EXTT2=
EXTT3=
EXTT4=
EXTT5=
EXTT6=
EXTT7=
EXTT8=
EXTT9=
EXTT10=
EXTT11=
PLAYORDER=
